<?xml version="1.0" encoding="UTF-8"?>
<svg id="Layer_2" data-name="Layer 2" xmlns="http://www.w3.org/2000/svg" viewBox="0 0 122.54 123.8">
  <defs>
    <style>
      .cls-1 {
        fill: #191428;
        stroke-width: 0px;
      }
    </style>
  </defs>
  <g id="OBJECTS">
    <path class="cls-1" d="M108.77,71.55c-4.53,22.13-24.24,38.19-46.87,38.19-16.86,0-31.72-8.77-40.24-21.99l4.9-2.72c7.63,11.51,20.61,18.65,34.71,18.65,19.69,0,36.84-13.98,40.78-33.24l-5.3-1.08c-3.43,16.76-18.35,28.92-35.49,28.92-12.13,0-23.31-6.07-29.98-15.88l86.73-46.62C107.9,14.05,85.87,0,61.9,0,27.77,0,0,27.77,0,61.9s27.77,61.9,61.9,61.9c29.28,0,54.78-20.79,60.64-49.43l-13.77-2.82ZM97.28,29.72L15.85,74.91c-.53-1.88-.95-3.81-1.25-5.78L90.1,23.29c2.6,1.89,5,4.05,7.18,6.43ZM61.9,14.05c4.54,0,8.98.65,13.23,1.88L14.99,52.44C19.39,30.57,38.75,14.05,61.9,14.05Z"/>
  </g>
</svg>